<svg version="1.2" baseProfile="tiny-ps" xmlns="http://www.w3.org/2000/svg" viewBox="0 0 3067 1064" width="700" height="243">
	<title>logo</title>
	<style>
		tspan { white-space:pre }
		.shp0 { fill: #fff }
	</style>
	<path fill-rule="evenodd" class="shp0" d="M551 39.52C573.81 39.72 589.13 40.33 599 41.45C606.97 42.36 621.38 44.43 631 46.05C640.63 47.67 657.5 51.24 668.5 53.97C679.5 56.7 695.47 61.24 704 64.06C712.53 66.88 725.8 71.65 733.5 74.67C741.2 77.68 758.3 85.48 771.5 92C784.7 98.52 797.41 105.23 799.75 106.92C802.5 108.92 804.88 111.85 806.49 115.25C808.12 118.69 808.98 122.22 808.97 125.5C808.96 128.34 808.08 132.44 806.94 135C805.35 138.53 770.6 173.83 645.71 298.75C558.14 386.34 486.28 458.02 486 458.05C485.72 458.07 482.91 454.7 479.75 450.55C476.59 446.4 469.39 438.48 453.5 422.9L591.19 285.2C718.44 157.94 728.92 147.2 729.56 143.5C729.94 141.26 729.75 137.85 729.12 135.75C728.5 133.69 726.76 130.64 725.25 128.98C723.36 126.91 718.58 124.39 710 120.95C703.13 118.19 690.08 113.51 681 110.54C671.92 107.56 660 104 654.5 102.61C649 101.22 637.75 98.97 629.5 97.61C621.25 96.25 607.75 94.33 599.5 93.33C587.42 91.88 576.9 91.53 545.5 91.53C514.1 91.53 503.58 91.88 491.5 93.33C483.25 94.33 469.75 96.25 461.5 97.61C453.25 98.97 442 101.22 436.5 102.61C431 104 419.53 107.41 411 110.19C402.47 112.96 389.2 117.69 381.5 120.7C373.8 123.71 356.25 131.74 342.5 138.54C328.75 145.34 310.53 155.24 302 160.53C293.47 165.82 282.95 172.7 278.6 175.82C274.26 178.95 264.81 186.4 257.6 192.4C250.4 198.39 239.59 207.84 233.58 213.4C227.58 218.95 216.83 229.8 209.69 237.5C202.55 245.2 191.66 257.8 185.49 265.5C179.32 273.2 170.43 285.35 165.73 292.5C161.04 299.65 153.96 311.13 150 318C146.05 324.88 138.84 338.6 134 348.5C129.15 358.4 122.26 373.92 118.68 383C115.11 392.08 109.65 407.38 106.55 417C103.45 426.63 99.38 442.15 97.51 451.5C95.63 460.85 93.18 475.92 92.05 485C90.93 494.08 89.56 508.7 89.01 517.5C88.46 526.3 88.01 540.03 88.01 548C88.01 555.97 88.46 569.7 89.01 578.5C89.56 587.3 90.93 601.92 92.05 611C93.18 620.08 95.63 635.15 97.51 644.5C99.38 653.85 103.45 669.38 106.55 679C109.65 688.63 115.03 703.7 118.5 712.5C121.98 721.3 126.79 732.55 129.19 737.5C131.59 742.45 137.67 754.6 142.69 764.5C147.71 774.4 154.73 789.03 158.3 797C161.87 804.97 167.79 818.92 171.46 828C175.13 837.08 180.54 851.7 183.49 860.5C186.44 869.3 190.2 881.9 191.86 888.5C193.51 895.1 195.82 905.45 196.98 911.5C198.14 917.55 199.74 923.51 200.54 924.75C201.34 925.99 203.8 927.9 206 929C208.2 930.1 213.04 931.44 216.75 931.98C221.04 932.6 331.95 932.97 818 933L820.14 929.25C821.32 927.19 824.12 922.58 826.35 919C828.59 915.42 832.43 909.8 834.88 906.5C837.33 903.2 843.27 896.45 848.07 891.5C853.37 886.05 857.1 881.32 857.54 879.5C857.94 877.85 858.1 874.19 857.89 871.36C857.59 867.47 856.77 865.33 854.5 862.59C852.51 860.19 835.14 848.76 803 828.7C776.33 812.05 751.13 796.29 747 793.69C742.88 791.08 734.33 785.75 728 781.83C721.67 777.9 713.58 772.82 710 770.52C706.42 768.23 694.95 761.03 684.5 754.54C674.05 748.04 661.22 740.03 656 736.73C650.78 733.44 644.92 729.76 643 728.55C641.08 727.34 637.7 725.19 635.5 723.77C633.3 722.35 626.1 717.85 619.5 713.77C612.9 709.68 591.08 696.09 571 683.56C550.92 671.03 532.92 659.76 531 658.52C529.08 657.28 525.03 654.7 522 652.8C518.97 650.9 511.27 646.01 493.28 634.5L498.54 623.5C501.43 617.45 505.25 607.33 507.03 601C508.81 594.67 510.32 589.38 510.38 589.24C510.45 589.09 512.98 590.44 516 592.24C519.03 594.03 535.8 604.5 553.27 615.5C570.74 626.5 593.91 641.08 604.77 647.89C615.62 654.71 641.38 670.87 662 683.81C682.63 696.75 719.75 720.02 744.5 735.52C769.25 751.03 809.53 776.22 834 791.5C858.47 806.78 888.14 825.41 899.93 832.89C911.72 840.38 922.52 847.64 923.93 849.04C925.34 850.44 927.59 853.82 928.92 856.54C930.75 860.28 931.36 863.23 931.41 868.5C931.47 874.17 930.95 876.64 928.68 881.5C926.33 886.53 922.23 891.14 903.27 910C884.57 928.61 880.23 933.45 878.23 938C876.89 941.03 874.91 947.55 873.81 952.5C872.43 958.71 871.6 967.4 871.14 980.5C870.5 998.25 870.28 999.86 867.81 1005C866.36 1008.03 863.22 1012.27 860.83 1014.44C858.45 1016.61 854.47 1019.31 847.5 1022.5L537.5 1022.5C253.48 1022.5 226.91 1022.36 220.5 1020.86C216.65 1019.95 209.67 1017.73 205 1015.92C200.33 1014.11 192.67 1010.06 188 1006.93C183.22 1003.74 175.99 997.53 171.5 992.77C167.1 988.11 162.04 981.87 160.26 978.9C158.48 975.93 155.38 969.67 153.36 965C151.35 960.33 148.87 952.45 147.86 947.5C146.85 942.55 146.02 934.9 146.01 930.5C145.99 926.1 145.52 919.58 144.96 916C144.4 912.42 142.34 903.88 140.38 897C138.43 890.13 133.89 876.63 130.31 867C126.72 857.38 120.41 841.63 116.28 832C112.15 822.38 102.56 801.67 94.98 786C87.39 770.33 79.18 752.78 76.72 747C74.27 741.22 70.36 731.33 68.04 725C65.71 718.67 62.03 707.88 59.85 701C57.67 694.13 54.57 683.55 52.96 677.5C51.35 671.45 48.7 660.2 47.07 652.5C45.43 644.8 42.98 630.63 41.61 621C40.23 611.38 38.55 597.42 37.86 590C37.17 582.58 36.61 563.67 36.61 548C36.61 532.33 37.17 513.42 37.86 506C38.55 498.58 40.23 484.63 41.61 475C42.98 465.38 45.43 451.2 47.07 443.5C48.7 435.8 51.35 424.55 52.96 418.5C54.57 412.45 57.74 401.65 60.01 394.5C62.27 387.35 66.4 375.42 69.18 368C71.96 360.58 77.14 347.98 80.69 340C84.24 332.02 90.21 319.65 93.95 312.5C97.69 305.35 103.58 294.77 107.04 289C110.49 283.23 116.23 274 119.79 268.5C123.34 263 130.77 252.42 136.29 245C141.81 237.58 150.64 226.33 155.92 220.01C161.19 213.68 172.7 201.15 181.5 192.16C190.3 183.16 203.28 170.79 210.35 164.65C217.42 158.52 228 149.76 233.85 145.19C239.71 140.62 252.38 131.6 262 125.14C271.63 118.69 285.58 109.97 293 105.77C300.42 101.56 314.83 94.1 325 89.18C335.17 84.26 349.8 77.74 357.5 74.71C365.2 71.67 378.47 66.88 387 64.06C395.53 61.24 411.5 56.7 422.5 53.97C433.5 51.24 450.38 47.67 460 46.05C469.63 44.42 484.25 42.41 492.5 41.57C500.75 40.73 509.75 39.86 512.5 39.64C515.25 39.42 532.58 39.37 551 39.52ZM419.73 968.72C418.2 970.25 416.69 972.85 416.36 974.5C416.03 976.15 416.09 978.85 416.49 980.5C416.89 982.15 418.74 984.96 420.61 986.75L424 990C795.82 990 829.45 989.78 831.75 988.63C833.26 987.88 835.35 985.97 836.38 984.38C837.42 982.8 838.3 979.7 838.34 977.5C838.38 975.3 837.64 972.26 836.71 970.75C835.77 969.24 833.78 967.21 832.29 966.25C829.74 964.6 818.21 964.49 629.54 964.35C518.24 964.26 427.95 964.58 426 965.07C424.08 965.55 421.25 967.19 419.73 968.72ZM359.5 971C358.67 972.65 358 975.58 358 977.5C358 979.42 358.69 982.24 359.54 983.75C360.38 985.26 362.4 987.29 364.04 988.25C365.67 989.21 368.69 990.01 370.75 990.03C373.03 990.05 375.87 989.15 378 987.74C380.27 986.24 381.96 984.04 382.82 981.46C383.82 978.47 383.88 976.58 383.07 973.75C382.48 971.69 380.65 968.88 379 967.5C376.7 965.59 374.89 965.01 371.25 965.04C368.64 965.06 365.26 965.74 363.75 966.54C362.24 967.34 360.33 969.35 359.5 971ZM850 176.99C853.28 176.98 855.72 177.76 859 179.85C861.47 181.44 867.99 186.51 873.49 191.12C878.98 195.73 888.2 203.99 893.99 209.48C899.77 214.97 908.55 223.76 913.5 229C918.45 234.25 925.89 242.59 930.03 247.52C934.18 252.46 939.84 259.42 942.61 263C945.39 266.58 950.85 274 954.75 279.5C958.65 285 966.2 296.7 971.52 305.5C976.84 314.3 985.15 329.6 990 339.5C994.85 349.4 1001.07 363.13 1003.83 370C1006.59 376.88 1010.88 388.58 1013.36 396C1015.85 403.42 1019.68 416.48 1021.89 425C1024.09 433.52 1027.05 446.46 1028.45 453.75C1029.85 461.04 1031.88 473.86 1032.97 482.25C1034.05 490.64 1035.43 506.95 1036.04 518.5C1036.86 533.93 1036.86 545.07 1036.04 560.5C1035.43 572.05 1034.03 588.47 1032.94 597C1031.85 605.53 1029.6 619.25 1027.95 627.5C1026.29 635.75 1023.57 647.67 1021.9 654C1020.23 660.33 1016.81 671.8 1014.31 679.5C1011.8 687.2 1007.72 698.67 1005.24 705C1002.76 711.33 997.71 723.03 994.03 731C990.36 738.97 984.19 751.13 980.33 758C976.48 764.88 970.84 774.55 967.8 779.5C964 785.71 961.08 789.26 958.39 790.94C956.25 792.28 952.7 793.58 950.5 793.84C947.74 794.16 945.02 793.63 941.75 792.15C938.32 790.6 936.31 788.82 934.52 785.75C932.9 782.96 932.04 779.95 932.02 777C932.01 774.53 932.79 771.08 933.75 769.34C934.71 767.6 938.33 761.53 941.8 755.84C945.26 750.15 952.49 736.72 957.87 726C963.24 715.28 970.03 700.42 972.96 693C975.89 685.58 979.82 675 981.69 669.5C983.56 664 986.62 654.1 988.49 647.5C990.37 640.9 993.02 629.42 994.39 622C995.76 614.58 997.56 603.1 998.4 596.5C999.24 589.9 1000.39 578.42 1000.96 571C1001.54 563.58 1002 549.4 1002 539.5C1002 529.6 1001.54 515.42 1000.99 508C1000.43 500.58 999.06 487.53 997.94 479C996.81 470.48 994.57 457.2 992.96 449.5C991.34 441.8 988.29 429.88 986.17 423C984.06 416.13 980.17 404.65 977.52 397.5C974.88 390.35 969.39 377.08 965.33 368C961.27 358.92 954.44 345.2 950.15 337.5C945.86 329.8 939.46 318.86 935.93 313.19C932.39 307.51 925.94 298.06 921.59 292.19C917.24 286.31 910.26 277.45 906.09 272.51C901.92 267.56 894.09 258.78 888.7 253.01C883.31 247.23 874.09 238.04 868.2 232.58C862.32 227.13 852.6 218.58 846.61 213.58C840.62 208.59 835.11 203.26 834.36 201.75C833.61 200.24 833 196.75 833 194C833 191.25 833.63 187.76 834.4 186.25C835.16 184.74 836.63 182.74 837.65 181.82C838.67 180.9 840.85 179.44 842.5 178.58C844.15 177.72 847.53 177 850 176.99ZM650.95 312.48C651.8 312.73 659.25 314.72 667.5 316.9C675.75 319.08 687.67 322.21 694 323.87C700.33 325.53 731.6 333.69 763.5 342.01C801.6 351.95 822.7 357.91 825 359.39C826.92 360.63 829.37 363.41 830.44 365.57C832.16 369.06 832.47 372.83 833.18 399.5C833.62 416 834.22 432.65 835.09 443.5L857.29 449.83C869.51 453.31 894.58 460.43 913 465.66C931.42 470.88 947.85 475.96 949.5 476.95C951.16 477.95 953.57 480.92 954.9 483.62C956.66 487.2 957.17 489.56 956.81 492.5C956.54 494.7 953.81 502.8 950.75 510.5C947.68 518.2 941.72 533.28 937.49 544C933.26 554.72 925.53 574.3 920.31 587.5C915.09 600.7 909.88 613.08 908.72 615C907.57 616.92 903.67 622.46 900.06 627.31C895.09 633.99 891.2 637.83 884 643.22C878.78 647.13 871.8 651.54 868.5 653.03C865.2 654.53 857.33 657.01 851 658.55C841.31 660.91 836.36 661.47 819.5 662.08C808.5 662.49 791.85 662.86 765.5 662.99L755 689.49C749.22 704.06 744.05 715.98 743.5 715.96C742.95 715.95 736.65 712.28 729.5 707.81C722.35 703.34 716.05 699.3 715.5 698.85C714.86 698.32 718.88 687 726.5 667.79C735.88 644.17 739.21 636.84 741.75 634.28C743.54 632.48 746.69 630.59 748.75 630.08C750.81 629.58 771.17 628.72 794 628.18C826.66 627.39 836.88 626.83 842 625.54C845.58 624.63 851.39 622.46 854.92 620.7C858.45 618.94 864.48 614.58 868.3 611C872.13 607.42 876.29 602.7 877.56 600.5C878.82 598.3 884.9 583.67 891.07 568C897.23 552.33 905.58 531.17 909.61 521C913.65 510.83 916.85 502.43 916.73 502.34C916.6 502.25 906.15 499.25 893.5 495.67C880.85 492.09 857.45 485.47 841.5 480.97C825.55 476.46 811.26 472.15 809.75 471.38C808.24 470.62 805.78 468.31 804.28 466.25C802.04 463.16 801.44 461.01 800.88 454C800.5 449.33 799.91 434.7 799.57 421.5C799.23 408.3 798.72 395.02 797.91 386.5L770.21 379.16C754.97 375.13 729.9 368.52 714.5 364.47C699.1 360.43 672.55 353.48 655.5 349.03C638.45 344.58 623.83 340.71 623 340.43C621.96 340.08 625.8 335.62 635.45 325.97C644.45 316.97 649.96 312.18 650.95 312.48ZM351 403.53C358.42 403.73 368.55 404.63 373.5 405.53C378.45 406.42 387.45 408.74 393.5 410.69C399.55 412.63 409.22 416.62 415 419.55C420.78 422.48 429.33 427.58 434 430.88C438.67 434.18 446.74 441.07 451.92 446.19C457.11 451.31 463.86 458.88 466.93 463C470 467.13 474.62 474.1 477.2 478.5C479.78 482.9 483.7 491 485.9 496.5C488.11 502 491.04 511.22 492.42 517C493.8 522.78 495.39 531.33 495.96 536C496.54 540.67 496.99 548.33 496.98 553C496.97 557.67 496.32 566.22 495.53 572C494.74 577.78 493.15 586.1 491.99 590.5C490.82 594.9 488.08 603 485.89 608.5C483.7 614 480.06 621.65 477.81 625.5C475.55 629.35 471.64 635.42 469.12 639C466.59 642.58 461.87 648.42 458.62 652C455.37 655.58 449.51 661.36 445.61 664.86C441.7 668.35 434.9 673.59 430.5 676.48C426.1 679.38 420.03 683.1 417 684.75C413.97 686.39 407.45 689.35 402.5 691.32C397.55 693.3 388.78 696.03 383 697.41C377.22 698.78 367.78 700.44 362 701.09C355.96 701.77 347.04 702.01 341 701.65C335.22 701.31 326.45 700.32 321.5 699.46C316.55 698.59 307.33 696.17 301 694.07C294.67 691.97 285.9 688.44 281.5 686.23C277.1 684.02 269.45 679.51 264.5 676.22C259.55 672.93 252.55 667.59 248.95 664.37C245.35 661.14 239.56 655.35 236.08 651.5C232.61 647.65 226.92 640.22 223.45 635C219.98 629.78 215.13 621.22 212.68 616C210.22 610.78 206.84 602 205.15 596.5C203.46 591 201.31 582.45 200.36 577.5C199.18 571.32 198.64 563.48 198.64 552.5C198.64 541.52 199.18 533.68 200.36 527.5C201.31 522.55 203.46 514 205.15 508.5C206.84 503 210.22 494.22 212.66 489C215.11 483.78 219.98 475.23 223.48 470C226.98 464.77 232.47 457.55 235.67 453.95C238.88 450.35 244.65 444.58 248.5 441.13C252.35 437.68 259.55 432.13 264.5 428.81C269.45 425.48 277.1 420.96 281.5 418.75C285.9 416.54 294.67 413.03 301 410.94C307.33 408.86 316.78 406.45 322 405.6C327.22 404.74 332.85 403.84 334.5 403.6C336.15 403.36 343.58 403.33 351 403.53ZM317 438.87C312.88 439.91 306.13 442.15 302 443.85C297.88 445.55 290.89 449.09 286.48 451.72C282.07 454.35 275.1 459.28 270.98 462.68C266.87 466.08 261.46 471.25 258.97 474.18C256.48 477.11 253.07 481.3 251.38 483.5C249.69 485.7 246.47 490.65 244.21 494.5C241.95 498.35 238.68 505.1 236.93 509.5C235.19 513.9 232.96 520.65 231.97 524.5C230.98 528.35 229.62 536.45 228.95 542.5C228 550.96 227.98 556.04 228.86 564.5C229.48 570.55 231.14 579.78 232.53 585C233.92 590.22 237.46 599.45 240.41 605.5C243.36 611.55 248.45 620.1 251.72 624.5C255 628.9 261.24 635.88 265.59 640.01C269.94 644.15 276.65 649.63 280.5 652.19C284.35 654.76 291.78 658.89 297 661.38C302.22 663.86 310.78 667.04 316 668.44C321.22 669.84 330.22 671.5 336 672.11C343.74 672.94 349.39 672.95 357.5 672.13C363.55 671.52 371.88 670.17 376 669.13C380.13 668.09 387.1 665.81 391.5 664.06C395.9 662.31 402.88 658.9 407 656.48C411.13 654.06 418.1 649.2 422.5 645.68C426.9 642.16 433.16 636.18 436.42 632.39C439.67 628.6 444.22 622.58 446.54 619C448.85 615.42 452.15 609.69 453.87 606.25C455.59 602.81 458.33 596.06 459.95 591.25C461.58 586.44 463.6 578.22 464.45 573C465.3 567.78 465.99 559.34 466 554.25C466 549.16 465.51 541.51 464.9 537.25C464.3 532.99 462.72 525.67 461.4 521C460.07 516.33 456.55 507.55 453.57 501.5C450.6 495.45 445.49 486.9 442.22 482.5C438.95 478.1 432.91 471.35 428.81 467.5C424.7 463.65 418.23 458.4 414.42 455.84C410.61 453.28 403.22 449.13 398 446.62C392.78 444.11 384.67 440.96 380 439.63C375.33 438.29 368.01 436.7 363.75 436.1C359.49 435.49 351.61 435.05 346.25 435.12C340.89 435.19 333.8 435.64 330.5 436.12C327.2 436.6 321.13 437.84 317 438.87ZM668.5 422.14C669.6 422.07 672.3 422.51 674.5 423.12C676.7 423.74 679.86 425.65 681.52 427.37C683.23 429.14 685.08 432.56 685.77 435.25C686.77 439.11 686.74 440.8 685.64 444.25C684.89 446.59 676.54 468.98 667.09 494C657.63 519.03 646.06 549.63 641.38 562C636.69 574.38 630.88 589.67 628.46 596C626.05 602.33 622.27 612.22 620.08 618C617.88 623.78 614.95 629.63 613.56 631C611.73 632.82 610.55 633.27 609.27 632.66C608.3 632.2 595.58 624.38 581 615.29C566.42 606.2 554.28 598.59 554 598.38C553.72 598.17 553.72 597.77 554 597.5C554.28 597.22 562.38 597.89 572 598.98C581.63 600.07 589.61 600.86 589.73 600.73C589.86 600.61 595.62 585.65 602.52 567.5C609.43 549.35 616.15 531.58 617.45 528C618.76 524.42 623.08 512.95 627.06 502.5C631.04 492.05 635.55 480.13 637.07 476C638.6 471.88 642.97 460.17 646.78 450C652.44 434.9 654.43 430.74 657.61 427.33C659.75 425.04 662.63 422.97 664 422.72C665.38 422.47 667.4 422.21 668.5 422.14ZM342.25 468.1C350.7 468 351.1 468.1 354 471C356.44 473.44 357 474.83 357 478.5C357 482.21 356.46 483.53 353.92 486C351.4 488.46 350 489 346.17 489.02C343.6 489.03 338.35 489.49 334.5 490.04C329.59 490.75 324.51 492.5 317.5 495.93C309.24 499.96 306.25 502.09 300.35 508.15C294.85 513.81 292.14 517.68 288.57 525C285.56 531.18 283.61 536.77 282.99 541C282.47 544.58 282.03 549.64 282.02 552.25C282.01 554.86 281.44 558.18 280.75 559.62C280.06 561.06 278.26 562.86 276.75 563.62C275.24 564.38 272.42 565 270.5 565C267.86 565 266.23 564.2 260.72 558.5L261.22 547C261.63 537.63 262.31 533.74 264.91 526C266.65 520.78 270.2 512.93 272.79 508.57C275.39 504.2 280.87 497.22 285 493.02C289.13 488.84 295.88 483.32 300 480.76C304.13 478.2 310.65 474.92 314.5 473.47C318.35 472.02 324.2 470.24 327.5 469.52C330.8 468.79 337.44 468.16 342.25 468.1ZM1406.97 531L1469 531L1469.01 715.75C1469.01 835.03 1469.36 901.83 1470.01 904.25C1470.55 906.31 1472.24 909.43 1473.75 911.17C1475.26 912.92 1478.3 915.16 1480.5 916.15C1483.77 917.63 1487.2 917.96 1514 918L1514 979L1497.75 979C1488.81 979 1477.45 978.5 1472.5 977.9C1467.55 977.3 1459.45 975.51 1454.5 973.93C1449.55 972.34 1442.57 969.35 1439 967.27C1435.43 965.2 1429.31 960.35 1425.42 956.5C1420.66 951.8 1417.3 947.36 1415.17 943C1413.43 939.42 1411 932.9 1407.5 920.5L1406.97 531ZM2086.97 531L2149.94 531L2149.5 594.5L2087.5 594.5L2086.97 531ZM2337 531L2399 531L2399 669.5C2399 745.67 2399.34 808.19 2399.75 808.43C2400.16 808.66 2427.05 775.53 2459.5 734.79C2491.95 694.06 2518.95 660.56 2519.5 660.35C2520.05 660.15 2536.87 660.09 2593.25 660.5L2540.11 722.5C2490.66 780.2 2487.07 784.64 2488.35 786.5C2489.1 787.6 2516.34 831.14 2548.86 883.25C2581.39 935.36 2608 978.22 2608 978.5C2608 978.78 2590.56 979.01 2530.5 979.04L2490.28 906.27C2468.16 866.25 2449.49 832.71 2448.78 831.74C2447.64 830.17 2444.91 833.03 2399 887L2399 979L2337 979L2337 531ZM1771 656.46C1789.54 656.7 1796.98 657.21 1806.25 658.88C1812.71 660.05 1822.84 662.56 1828.75 664.48C1834.66 666.39 1843.1 669.8 1847.5 672.06C1851.9 674.32 1857.53 677.65 1860 679.46C1862.47 681.27 1867.43 685.87 1871 689.69C1874.77 693.71 1879.26 699.97 1881.67 704.56C1883.97 708.93 1887.02 716.1 1888.44 720.5C1889.87 724.9 1891.7 733 1892.51 738.5C1893.74 746.86 1893.98 767.46 1894 979L1832 979L1832 965C1832 956.33 1831.62 951 1831 951C1830.45 951 1829.78 951.9 1829.5 953C1829.22 954.1 1826.41 957.75 1823.25 961.11C1820.09 964.47 1815.03 968.71 1812 970.54C1808.97 972.36 1802.45 975.21 1797.5 976.86C1792.55 978.52 1784.68 980.41 1780 981.06C1775.32 981.72 1764.75 982.26 1756.5 982.27C1748.25 982.28 1737.68 981.73 1733 981.05C1728.32 980.37 1720.68 978.72 1716 977.38C1711.32 976.04 1703.45 972.99 1698.5 970.61C1693.55 968.23 1686.8 964.25 1683.5 961.77C1680.2 959.28 1674.13 953.66 1670 949.26C1665.88 944.87 1661.04 938.85 1659.26 935.89C1657.48 932.93 1654.47 926.9 1652.58 922.5C1650.69 918.1 1648.37 910.9 1647.43 906.5C1646.32 901.28 1645.72 893.81 1645.7 885C1645.68 877.58 1646.22 868.8 1646.9 865.5C1647.57 862.2 1649.06 856.58 1650.2 853C1651.35 849.42 1653.63 843.8 1655.27 840.5C1656.92 837.2 1659.64 832.47 1661.32 830C1663 827.53 1667.33 822.41 1670.94 818.64C1674.55 814.86 1680.2 809.94 1683.5 807.69C1686.8 805.45 1692.65 802.18 1696.5 800.42C1700.35 798.67 1705.97 796.53 1709 795.66C1712.03 794.8 1718.55 793.39 1723.5 792.54C1730.84 791.27 1741.7 790.98 1832 791L1831.75 768.25C1831.5 745.88 1831.46 745.41 1828.83 740C1827.36 736.97 1823.99 732.5 1821.33 730.05C1818.67 727.6 1813.8 724.36 1810.5 722.86C1807.2 721.35 1800.9 719.34 1796.5 718.38C1790.45 717.07 1783.87 716.65 1769.5 716.66C1755.41 716.68 1748.43 717.12 1742.5 718.39C1738.1 719.33 1732.03 721.3 1729 722.76C1725.97 724.22 1721.22 727.68 1718.43 730.46C1715.64 733.23 1712.49 736.69 1709.5 740.77L1661.14 702.5L1663.27 699.5C1664.44 697.85 1668.57 693.32 1672.45 689.44C1676.33 685.56 1682.43 680.31 1686 677.79C1689.57 675.27 1696.1 671.41 1700.5 669.21C1704.9 667.01 1712.78 663.86 1718 662.2C1723.22 660.55 1730.88 658.7 1735 658.1C1739.13 657.5 1743.63 656.81 1745 656.58C1746.38 656.34 1758.07 656.29 1771 656.46ZM1732 846.6C1728.97 847.47 1723.84 849.6 1720.59 851.34C1717.35 853.08 1713.17 856.3 1711.31 858.5C1709.45 860.7 1707.01 864.97 1705.88 868C1704.24 872.4 1703.9 875.3 1704.17 882.5C1704.43 889.6 1705.02 892.55 1706.97 896.5C1708.34 899.25 1712.16 904.13 1715.47 907.34C1718.79 910.55 1723.75 914.26 1726.5 915.57C1729.25 916.88 1734.43 918.75 1738 919.72C1743.33 921.18 1748.55 921.5 1767 921.5C1784.97 921.5 1791.21 921.13 1798 919.68C1802.68 918.68 1809.15 916.65 1812.4 915.18C1815.64 913.71 1819.66 910.92 1821.32 909C1822.99 907.08 1825.38 903.25 1826.63 900.5C1827.88 897.75 1829.61 891.45 1830.46 886.5C1831.47 880.69 1832.02 871.38 1832.01 860.25L1832 843C1769.61 843.2 1748.35 843.65 1744.5 844.14C1740.65 844.63 1735.03 845.73 1732 846.6ZM2859.5 656.12C2868.85 656.05 2881.22 656.46 2887 657.04C2892.78 657.62 2901.78 658.99 2907 660.08C2912.22 661.17 2920.55 663.43 2925.5 665.1C2930.45 666.76 2938.49 670.24 2943.37 672.81C2948.25 675.39 2955.11 679.86 2958.62 682.75C2962.13 685.64 2967.07 690.81 2969.61 694.25C2972.14 697.69 2975.58 703.2 2977.25 706.5C2978.92 709.8 2981.15 714.97 2982.21 718C2983.27 721.03 2985.09 727.78 2986.25 733C2988.33 742.33 2988.37 744.66 2989 979L2927 979L2927 965C2927 957.3 2926.66 950.99 2926.25 950.97C2925.84 950.95 2923.7 953.51 2921.5 956.65C2919.3 959.79 2915.25 964.13 2912.5 966.3C2909.75 968.46 2904.8 971.59 2901.5 973.25C2898.2 974.9 2891.22 977.33 2886 978.64C2880.78 979.96 2870.65 981.49 2863.5 982.06C2854.48 982.78 2846.75 982.78 2838.25 982.05C2831.51 981.47 2822.06 980.15 2817.25 979.1C2812.44 978.06 2804.9 975.81 2800.5 974.11C2796.1 972.41 2789.7 969.33 2786.28 967.26C2782.86 965.19 2776.86 960.8 2772.95 957.5C2769.03 954.2 2763.12 948.13 2759.8 944C2756.49 939.88 2751.8 932.45 2749.38 927.5C2746.96 922.55 2744.01 914.9 2742.82 910.5C2741.01 903.79 2740.65 899.68 2740.6 885C2740.56 869.73 2740.84 866.42 2742.86 859C2744.13 854.33 2746.62 847.35 2748.39 843.5C2750.16 839.65 2753.59 833.58 2755.99 830C2758.4 826.42 2763.1 820.75 2766.44 817.4C2769.77 814.04 2775.65 809.26 2779.5 806.76C2783.35 804.27 2789.2 801.11 2792.5 799.74C2795.8 798.37 2800.07 796.75 2802 796.13C2803.93 795.51 2808.65 794.25 2812.5 793.33C2818.41 791.91 2827.8 791.56 2926.5 790.5L2926.48 769.5C2926.47 752.4 2926.15 747.57 2924.76 743.5C2923.83 740.75 2921.7 736.59 2920.03 734.25C2918.36 731.91 2914.64 728.41 2911.75 726.48C2908.86 724.54 2903.01 721.84 2898.75 720.48C2894.02 718.96 2886.04 717.53 2878.25 716.8C2868.46 715.89 2862.25 715.88 2851.5 716.77C2843.8 717.41 2834.57 718.82 2831 719.91C2827.43 720.99 2821.8 723.66 2818.5 725.85C2815.05 728.13 2810.8 732.15 2804.5 740.81L2780.25 721.91C2766.91 711.51 2756 702.55 2756 702C2756 701.45 2760.84 696.13 2766.75 690.18C2774.09 682.79 2780.2 677.71 2786 674.16C2790.68 671.3 2797.88 667.57 2802 665.86C2806.13 664.15 2813.55 661.71 2818.5 660.45C2823.45 659.19 2830.88 657.73 2835 657.21C2839.13 656.69 2850.15 656.2 2859.5 656.12ZM2831.07 845.77C2826.91 846.58 2821.14 848.32 2818.25 849.62C2815.36 850.93 2810.86 853.96 2808.25 856.36C2805.39 858.98 2802.56 862.87 2801.15 866.11C2799.85 869.07 2798.55 874.42 2798.26 878C2797.89 882.58 2798.25 886.27 2799.49 890.5C2800.45 893.8 2802.25 898.08 2803.48 900C2804.72 901.92 2807.93 905.56 2810.61 908.09C2813.3 910.61 2817.75 913.83 2820.5 915.24C2823.25 916.65 2828.43 918.63 2832 919.64C2837.45 921.19 2842.2 921.48 2861.5 921.49C2879.38 921.5 2886.17 921.13 2892 919.83C2896.13 918.91 2901.97 917.24 2905 916.12C2908.03 915.01 2912.27 912.39 2914.43 910.3C2916.6 908.21 2919.4 904.25 2920.67 901.5C2921.93 898.75 2923.69 893.13 2924.59 889C2925.72 883.75 2926.25 875.8 2926.36 862.5L2926.5 843.5C2863.72 843.35 2843.96 843.53 2842.07 843.8C2840.19 844.07 2835.24 844.96 2831.07 845.77ZM2087 660L2150 660L2150 979L2087 979L2087 660Z" />
</svg>