<svg xmlns="http://www.w3.org/2000/svg" baseProfile="tiny-ps" viewBox="0 0 2576 2481" width="500" height="482"><path fill-rule="evenodd" d="M1314.5 80.53c39.6.21 61.86.76 76 1.88l39.5 3.61c10.73 1.12 30.3 3.58 43.5 5.47s32.77 5.04 43.5 7.01l36 7.09c9.08 1.93 25.73 5.79 37 8.57s30.63 7.96 43 11.5c12.38 3.55 33.08 9.97 46 14.28s32.73 11.32 44 15.58 28.83 11.24 39 15.5c10.17 4.27 27.5 11.89 38.5 16.93 11 5.05 30.8 14.73 44 21.51l36.5 19.36c6.88 3.86 14.75 8.76 17.5 10.89 2.75 2.12 6.94 6.77 9.3 10.32 2.37 3.56 5.26 8.94 6.42 11.97 1.53 3.98 2.25 8.55 2.57 16.5.35 8.44.05 12.4-1.26 17-.94 3.3-3.09 8.7-4.79 12-2.68 5.22-51.01 53.95-372.66 375.75l-370.23 369.5c-.36-.14-5.36-6.55-11.12-14.25-5.75-7.7-13.97-18.05-18.25-23s-12.8-13.95-18.93-20c-6.12-6.05-14.85-14.15-27.65-25l318.04-318 320.15-324c1.26-3.6 2.13-8.6 2.16-12.5.03-3.79-.74-8.99-1.85-12.47-1.04-3.29-3.48-8.2-5.4-10.91-1.92-2.72-5.08-6.21-7-7.76-1.92-1.56-10.7-5.79-19.5-9.41a1305.29 1305.29 0 0 0-33.5-13.11l-33.5-11.98a1319.87 1319.87 0 0 0-32-10.32l-32.5-9.4c-9.08-2.48-24.6-6.11-34.5-8.07-9.9-1.95-27.67-5.11-39.5-7.01-11.83-1.91-30.73-4.61-42-6l-36.5-4.01-33-2.76c-11.07-.83-37.41-1.28-75.5-1.28s-64.43.45-75.5 1.28l-33 2.76c-8.8.81-25.23 2.61-36.5 4.01-11.27 1.39-30.17 4.09-42 6-11.83 1.9-29.6 5.06-39.5 7.01-9.9 1.96-25.42 5.58-34.5 8.06l-28 7.99-27 8.58c-8.52 2.8-23.83 8.12-34 11.82a1335.98 1335.98 0 0 0-37 14.22c-10.17 4.12-27.5 11.46-38.5 16.33-11 4.86-32.37 15.02-47.5 22.58-15.12 7.56-34.92 17.88-44 22.93s-25.5 14.58-36.5 21.17-30.35 18.86-43 27.28c-12.65 8.41-29.59 20.4-37.64 26.63l-29.5 23.51L617 455.03l-25 22.48c-7.98 7.32-26.21 25.16-40.52 39.65-14.32 14.48-31.44 32.42-38.06 39.84L492 581.5c-5.17 6.05-14.6 17.53-20.97 25.5l-21.02 27c-5.19 6.88-15.35 21.5-22.59 32.5s-18.56 29-25.16 40L381.08 743c-5.05 9.08-15.37 28.88-22.93 44-7.56 15.13-17.72 36.5-22.58 47.5-4.87 11-12.21 28.32-16.33 38.5a1335.98 1335.98 0 0 0-14.22 37l-11.82 34-8.58 27c-1.92 6.32-5.51 18.93-7.99 28s-6.1 24.6-8.06 34.5c-1.95 9.9-5.11 27.68-7.01 39.5-1.91 11.82-4.61 30.72-6 42l-4.01 36.5-2.76 33c-.83 11.07-1.28 37.41-1.28 75.5s.45 64.43 1.28 75.5l2.76 33c.81 8.8 2.61 25.22 4.01 36.5 1.39 11.28 4.09 30.18 6 42 1.9 11.82 5.06 29.6 7.01 39.5 1.96 9.9 5.58 25.43 8.06 34.5l7.99 28 8.58 27c2.8 8.53 8.13 23.82 11.84 34l12.74 33.5c3.3 8.25 9.83 23.78 14.52 34.5l12.93 28.5c2.43 4.95 6.13 11.93 8.22 15.5 2.08 3.57 10.06 19.1 17.73 34.5l21.96 45.5 13.83 30 9.31 20.5 7.22 16.5 7.54 18 7.96 19.5 9.52 24 10.04 27 9.58 27.5c2.71 7.97 6.91 21.03 9.35 29 2.43 7.97 7.34 26.2 10.9 40.5 3.55 14.3 7.8 32.75 9.43 41l4.3 23c.9 5.46 2.29 9.57 4.35 12.92 1.75 2.84 5.15 6.36 8.03 8.31 2.75 1.86 7.48 4.29 10.5 5.41s8.65 2.77 12.5 3.66c6.41 1.48 65.59 1.64 1400 2.18l5.09-9.24c2.8-5.08 9.73-16.44 15.41-25.24 5.67-8.8 15.05-22.3 20.83-30 7.45-9.91 15.56-18.97 27.77-31 13.59-13.39 17.79-18.17 19.8-22.5 1.4-3.03 2.93-8.2 3.4-11.5.49-3.39.49-8.83 0-12.5-.48-3.57-2.09-9.18-3.59-12.45-1.49-3.27-4.06-7.67-5.71-9.77s-6.83-6.24-11.5-9.2l-20-12.51-21.5-13.49-24-15-26.5-16.5-21.5-13.51-24-15.01-24-14.99-21.5-13.52-21.91-13.72-13.54-8.33-8.97-5.5c-2.67-1.65-8.95-5.74-13.96-9.08-5.02-3.35-10.7-6.89-12.62-7.87s-7.77-4.59-13-8.02-12.65-8.13-16.5-10.45l-15.5-9.56-17.78-11.19-17-10.93c-4.24-2.8-11.99-7.56-17.22-10.58-5.23-3.01-11.75-7.06-14.5-8.99-2.75-1.94-8.83-5.86-13.5-8.71l-18.5-11.55-19.5-12.22c-5.22-3.22-9.95-6.02-10.5-6.22s-5.27-3.16-10.5-6.57l-16.5-10.72-15.5-9.71-19.5-12.15-24-15.01-25.5-15.9-21.5-13.5-24-15.01-24-14.99-21.5-13.49-21.9-13.72-13.54-8.36-8.94-5.5-11.47-7.33-17.45-11-23-14.3-23.7-14.81-21.5-13.52-22-13.65c-6.6-4.01-15.37-9.6-19.5-12.42-4.12-2.82-8.51-5.43-9.75-5.8-2.19-.65-2.09-.97 4.2-12.92 3.54-6.74 8.77-17.65 11.61-24.25s7.35-18.53 10.03-26.5 6.56-21.39 12.41-45.11l6 3.89c3.3 2.14 7.8 4.79 10 5.88 2.2 1.1 37.3 22.93 78 48.52l80.69 50.92 16.27 10.4 14.31 9.02 25.73 16.14 52.5 32.9 43 26.94 25.5 15.98 43.5 27.32 79 49.54 72 45.19 56.5 35.48 40.5 25.47c3.58 2.28 7.4 4.5 8.5 4.93s4.48 2.46 7.5 4.51 10.45 6.75 16.5 10.44l23.5 14.57 21.5 13.5 24 15 26.5 16.5 21.5 13.49 24 15.02 24 15.01 20 12.54 17.24 10.84 19 12.11 35.69 23c17 11.06 25.18 17.01 28.26 20.56 2.38 2.75 5.88 7.93 7.77 11.5 1.9 3.57 4.37 10.1 5.5 14.5 1.41 5.47 2.06 11.16 2.06 18 0 6.49-.66 12.63-1.89 17.5-1.03 4.13-3.12 9.97-4.63 13s-5.09 8.43-7.96 12c-2.88 3.57-11.54 13.25-19.26 21.5s-22.98 23.8-33.91 34.56-25.49 24.64-32.37 30.84c-6.87 6.2-13.8 13.15-15.38 15.44s-4.59 7.76-6.68 12.16-4.9 11.38-6.26 15.5c-1.35 4.13-3.61 12.68-5.03 19s-3.27 16.68-4.12 23c-.84 6.32-1.97 22.97-2.5 37l-1.38 37.5c-.33 9.75-.91 13.41-3.08 19.5-1.46 4.13-3.97 9.75-5.57 12.5-1.61 2.75-4.85 7.32-7.21 10.16-2.36 2.83-6.54 7.02-9.29 9.3-2.75 2.29-7.7 5.65-11 7.48s-9.15 4.4-20 8.06h-1432l-11.5-2.21c-6.33-1.21-16.9-3.76-23.5-5.66s-17.4-5.74-24-8.55c-6.6-2.8-16.73-7.81-22.5-11.13-5.77-3.31-14.41-8.82-19.2-12.24-4.78-3.41-13.08-10.03-18.43-14.71-5.36-4.68-13.37-12.69-17.81-17.8-4.43-5.12-10.86-13.22-14.27-18-3.42-4.79-8.93-13.42-12.24-19.2-3.32-5.78-8.33-15.9-11.13-22.5-2.81-6.6-6.65-17.4-8.55-24s-4.37-16.95-5.49-23c-1.37-7.43-2.3-18.31-2.85-33.5-.6-16.55-1.49-26.33-3.35-37-1.39-7.97-3.49-18.32-4.67-23s-3.9-14.57-6.03-22c-2.14-7.43-6.82-22.05-10.4-32.5l-9.95-28.5-6.46-17.5-9.99-25.5-13.69-33-12.2-28-14.98-33c-5.21-11.28-17.74-37.15-27.84-57.5l-27.03-56-16.42-37.5c-4.26-10.18-11.24-27.72-15.5-39s-11.27-31.07-15.58-44-10.73-33.62-14.28-46c-3.54-12.37-8.72-31.72-11.5-43l-8.57-37c-1.93-9.07-5.12-25.28-7.09-36s-5.13-30.3-7.02-43.5c-1.9-13.2-4.55-35.03-5.9-48.5l-3.76-43c-.86-12.09-1.32-38.44-1.32-76s.46-63.91 1.32-76c.72-10.18 2.42-29.53 3.76-43 1.35-13.47 4-35.3 5.9-48.5 1.89-13.2 5.05-32.78 7.02-43.5l7.09-36c1.93-9.07 5.79-25.72 8.57-37s7.96-30.62 11.5-43c3.55-12.37 9.97-33.07 14.28-46s11.32-32.72 15.58-44 11.24-28.82 15.5-39c4.27-10.17 11.89-27.5 16.93-38.5 5.05-11 14.73-30.8 21.5-44 6.78-13.2 16.26-30.97 21.06-39.5l17.61-30.25 19.29-31c5.73-8.94 15.24-23.22 21.14-31.75 5.89-8.53 16.58-23.37 23.75-33 7.16-9.62 18.04-23.8 24.17-31.5a1416.75 1416.75 0 0 1 23.01-28 1604.77 1604.77 0 0 1 24.87-28.5c7.15-7.97 25.64-27.13 41.08-42.57s34.59-33.93 42.57-41.08l28.5-24.87a1416.75 1416.75 0 0 1 28-23.01c7.7-6.13 21.88-17.01 31.5-24.17 9.63-7.17 24.48-17.86 33-23.75a1295.85 1295.85 0 0 1 31.75-21.14l31-19.29c8.11-4.88 21.73-12.81 30.25-17.61s26.3-14.28 39.5-21.06c13.2-6.77 33-16.45 44-21.5 11-5.04 28.33-12.66 38.5-16.93 10.17-4.26 27.73-11.24 39-15.5s31.08-11.27 44-15.58 33.63-10.73 46-14.28c12.38-3.54 31.73-8.72 43-11.5l37-8.57 36-7.09c10.73-1.97 30.3-5.13 43.5-7.02 13.2-1.9 35.02-4.56 48.5-5.9 13.48-1.35 32.83-2.94 43-3.55l23.5-1.44c2.75-.19 30.2-.21 61-.06zM887.07 2229.26c-2.44 1.23-6.17 4.27-8.29 6.74s-4.58 6.75-5.46 9.5-1.6 7.03-1.6 9.5.82 6.97 1.81 10c1.29 3.92 3.27 6.96 6.89 10.58s6.66 5.6 10.58 6.89c3.02.99 7.52 1.81 10 1.81s6.98-.82 10-1.81c3.92-1.29 6.96-3.27 10.58-6.89s5.6-6.66 6.89-10.58c.99-3.03 1.81-7.53 1.81-10s-.82-6.97-1.81-10c-1.29-3.92-3.27-6.96-6.89-10.58-3.51-3.51-6.62-5.57-10.08-6.66-2.75-.87-6.35-1.78-8-2.02s-5.02-.05-7.5.42-6.5 1.87-8.93 3.1zm135 0c-2.44 1.23-6.17 4.27-8.29 6.74s-4.58 6.75-5.46 9.5-1.6 7.03-1.6 9.5.82 6.97 1.81 10c1.29 3.92 3.27 6.96 6.89 10.58 3.5 3.5 6.79 5.68 10.58 7 5.39 1.88 14.43 1.92 469.5 1.92l469.5-1.92c3.79-1.32 7.08-3.5 10.58-7 3.62-3.62 5.6-6.66 6.89-10.58.99-3.03 1.81-7.53 1.81-10s-.82-6.97-1.81-10c-1.29-3.92-3.27-6.95-6.89-10.57-3.05-3.04-7.08-5.84-10.08-7-4.91-1.9-13.07-1.93-467.5-2.07-271.85-.09-464.35.22-467 .76-2.48.49-6.5 1.91-8.93 3.14zM2012.5 400.28c8.55.21 10.8.64 15.5 2.96 3.02 1.49 12.02 7.97 20 14.4l26.97 22.28c6.86 5.82 19.91 17.39 29 25.71 9.09 8.31 26.66 25.41 39.05 38 12.39 12.58 28.32 29.4 35.41 37.37 7.08 7.97 19.19 22.15 26.89 31.5 7.71 9.35 21.42 26.9 30.47 39 9.06 12.1 23.52 32.58 32.13 45.5s20.63 31.83 26.71 42 15.12 25.92 20.09 35 13.54 25.5 19.04 36.5 13.26 27.2 17.24 36a1313.09 1313.09 0 0 1 14.05 32.5c3.74 9.07 9.59 23.93 12.98 33 3.4 9.07 9.28 25.84 13.07 37.25 3.8 11.41 9.62 30.31 12.94 42 3.33 11.69 8.03 29.35 10.46 39.25 2.42 9.9 6.24 27 8.48 38 2.25 11 5.39 27.88 7 37.5l4.5 29 3.51 28.5c1.06 9.35 2.72 26.45 3.7 38 1.43 16.98 1.77 32.01 1.77 78.5s-.34 61.52-1.77 78.5l-3.7 38-3.51 28.5c-.87 6.32-2.89 19.38-4.5 29-1.61 9.63-4.75 26.5-7 37.5-2.24 11-6.06 28.1-8.48 38-2.43 9.9-7.13 27.56-10.46 39.25-3.32 11.69-9.14 30.59-12.94 42-3.79 11.41-9.67 28.18-13.07 37.25-3.39 9.07-9.24 23.93-12.98 33a1313.09 1313.09 0 0 1-14.05 32.5c-3.98 8.8-11.86 25.22-17.5 36.5s-13.96 27.25-18.49 35.5-12.08 21.53-16.8 29.5l-16.76 27.5c-4.99 7.91-10.11 14.69-13.08 17.32-2.68 2.37-7.35 5.52-10.37 7-4.99 2.43-6.56 2.68-17 2.68-10.7 0-11.92-.2-17.5-2.94-3.3-1.62-8.28-5.22-11.06-8s-6.36-7.76-7.96-11.06c-2.32-4.8-2.99-7.7-3.31-14.5-.24-4.89.13-10.83.86-14 .87-3.75 3.24-8.36 7.45-14.5 3.39-4.95 10.45-16.2 15.68-25s13.81-23.87 19.06-33.5c5.25-9.62 12.92-24.25 17.04-32.5 4.13-8.25 10.88-22.43 15.01-31.5l13.26-30c3.16-7.43 8.87-21.6 12.7-31.5s10.93-29.93 15.79-44.5c4.85-14.57 11.52-36.18 14.8-48 3.29-11.82 7.62-29.6 9.63-39.5a1262.32 1262.32 0 0 0 6.57-35.5c1.6-9.62 4.04-25.82 5.4-36 1.37-10.18 3.4-28.4 4.51-40.5 1.1-12.1 2.47-30.1 3.04-40s1.04-35.32 1.04-56.5-.47-46.6-1.04-56.5-1.94-27.9-3.04-40c-1.11-12.1-3.14-30.32-4.51-40.5a1384.91 1384.91 0 0 0-5.4-36c-1.61-9.62-4.56-25.6-6.57-35.5s-6.34-27.68-9.63-39.5c-3.28-11.82-9.95-33.43-14.8-48-4.86-14.57-11.96-34.6-15.79-44.5l-12.7-31.5-13.26-30c-4.13-9.07-10.88-23.25-15.01-31.5-4.12-8.25-11.78-22.87-17.03-32.5-5.24-9.62-14.92-26.5-21.5-37.5s-17.48-28.33-24.22-38.5-17.38-25.31-23.63-33.63c-6.26-8.32-17-22.02-23.88-30.44-6.87-8.43-19-22.77-26.93-31.88-7.94-9.1-28.19-30.3-45-47.12-16.82-16.81-38.02-37.06-47.12-45-9.11-7.93-23.03-19.6-30.95-25.93-7.91-6.33-16.45-13.53-18.98-16s-5.93-7.2-7.56-10.5c-2.76-5.6-2.96-6.77-2.96-17.5 0-10.46.24-12 2.7-17 1.48-3.03 4.22-7.3 6.08-9.5s5.82-5.56 8.8-7.47c2.98-1.9 7.22-4.03 9.42-4.73 2.41-.77 7.97-1.18 14-1.02zm-465.39 312.94l9.2 2.44 31.69 8.31 69 18.04 91.5 23.95 118 30.87 78 20.64c2.75.85 7.38 3.23 10.29 5.29s6.96 6.21 9 9.22 4.44 8.19 5.33 11.5c1.02 3.8 1.85 12.48 2.26 23.52l1.17 33 1.99 62.5 1.46 51.25c0 3.63.33 4.3 2.25 4.61 1.24.19 25.65 6.97 54.25 15.05l78 22.08 54 15.33 50.49 14.31c18.04 5.11 23.57 7.1 28 10.06 3.28 2.2 7.13 6.02 9.51 9.48 2.31 3.34 4.74 8.54 5.75 12.31.97 3.59 1.75 8.55 1.73 11.02-.01 2.47-.66 6.97-1.45 10-.78 3.03-4.11 12.25-7.39 20.5l-16.65 42-21.16 53.5-16.82 42.5-17.01 43-17.19 43.5c-3.58 9.07-8.72 21-11.4 26.5-2.74 5.6-10.07 17.25-16.65 26.47-7.47 10.46-15.41 20.16-21.76 26.56-6.28 6.34-15.58 14.1-25 20.88-8.25 5.93-17.92 12.53-21.5 14.66s-11 5.72-16.5 7.97c-5.68 2.32-19.49 6.4-32 9.46l-30 6.88c-4.4.83-16.33 1.76-26.5 2.06l-41 1.04-61.5 1.11-40.83.76c-1.33.11-3 2.99-6.17 10.65l-9.83 24.5-12.99 33-14.59 37.25c-3.9 10.04-7.54 18.25-8.09 18.25s-16.19-9.48-34.75-21.06-33.61-21.59-33.44-22.25c.17-.65 1.36-3.89 2.65-7.19l9-23 10.97-27.5c2.38-5.78 4.66-11.62 5.07-13 .41-1.37 2.68-7.22 5.05-13l11.91-30 8.65-22c.57-1.37 2.56-4.75 4.42-7.5s5.98-6.8 9.15-9c3.18-2.2 8.49-4.74 11.8-5.64 4.45-1.21 12.65-1.79 31.52-2.25l46-1.1 55-1.02 44.5-1.05c5.5-.28 16.3-1.44 24-2.58 7.7-1.15 17.83-3.18 22.5-4.53s12.77-4.48 18-6.96c5.23-2.47 13.32-7.06 17.99-10.18 4.67-3.13 13.84-10.87 20.38-17.19 6.55-6.32 13.72-14.2 15.95-17.5s5.38-8.93 7-12.5l5.19-11.5c1.24-2.75 2.58-6.12 2.99-7.5.41-1.37 2.68-7.22 5.05-13l10.79-27 18.15-46 17.58-44.5 27.43-69.1-20.5-5.79-93-26.27-100.5-28.51-31-9.26c-1.65-.68-5.25-2.84-8-4.81-2.75-1.96-6.8-6.19-9-9.39s-4.73-8.54-5.63-11.85c-1.03-3.77-1.87-12.36-2.28-23.02l-1.09-30-.99-33-1.01-32-1.09-33-.77-21.25c-.08-.13-14.76-4.09-32.64-8.78l-66.5-17.45-64.5-16.9-86.5-22.65-106.63-27.81-51.5-13.95c-.48-.43 13.67-15.35 31.44-33.14l32.3-32.35zM857.5 924.8c6.05.16 17.75.97 26 1.79 8.25.83 20.85 2.63 28 4.01s18.17 3.89 24.5 5.57c6.33 1.69 17.24 5.04 24.25 7.45s18.94 7.1 26.5 10.41c7.56 3.32 18.92 8.84 25.25 12.25 6.33 3.42 18.26 10.72 26.52 16.22s19.28 13.44 24.5 17.65c5.21 4.2 13.82 11.63 19.13 16.5 5.3 4.87 13.79 13.35 18.85 18.85 5.07 5.5 12.65 14.27 16.85 19.48 4.21 5.22 12.15 16.24 17.65 24.5s12.8 20.2 16.22 26.52c3.41 6.32 8.93 17.69 12.25 25.25 3.31 7.56 8 19.49 10.41 26.5s5.76 17.93 7.45 24.25c1.68 6.32 4.19 17.35 5.57 24.5s3.22 19.75 4.09 28c.92 8.7 1.58 23.81 1.58 36s-.66 27.3-1.58 36c-.87 8.25-2.71 20.85-4.09 28s-3.89 18.18-5.57 24.5c-1.69 6.32-5.04 17.24-7.45 24.25s-7.1 18.94-10.41 26.5c-3.32 7.56-8.84 18.93-12.25 25.25-3.42 6.32-10.72 18.26-16.22 26.52s-13.44 19.28-17.65 24.5c-4.2 5.21-11.78 13.98-16.85 19.48-5.06 5.5-13.55 13.98-18.85 18.85-5.31 4.87-13.92 12.3-19.13 16.5-5.22 4.21-16.24 12.15-24.5 17.65s-20.19 12.8-26.52 16.22c-6.33 3.41-17.69 8.93-25.25 12.25-7.56 3.31-19.49 8-26.5 10.41s-17.92 5.76-24.25 7.45c-6.33 1.68-17.35 4.19-24.5 5.57s-19.75 3.22-28 4.09c-8.7.92-23.81 1.58-36 1.58s-27.3-.66-36-1.58c-8.25-.87-20.85-2.71-28-4.09s-18.17-3.89-24.5-5.57c-6.33-1.69-17.24-5.04-24.25-7.45s-18.94-7.1-26.5-10.41c-7.56-3.32-18.92-8.84-25.25-12.25-6.33-3.42-18.26-10.72-26.52-16.22s-19.28-13.44-24.5-17.65c-5.21-4.2-13.82-11.63-19.13-16.5-5.3-4.87-13.79-13.35-18.85-18.85-5.07-5.5-12.65-14.27-16.85-19.48-4.21-5.22-12.15-16.24-17.65-24.5s-12.8-20.2-16.22-26.52c-3.41-6.32-8.93-17.69-12.25-25.25-3.31-7.56-8-19.49-10.41-26.5s-5.76-17.93-7.45-24.25c-1.68-6.32-4.19-17.35-5.57-24.5s-3.22-19.75-4.09-28c-.92-8.7-1.58-23.81-1.58-36s.66-27.3 1.58-36c.87-8.25 2.71-20.85 4.09-28s3.89-18.18 5.57-24.5c1.69-6.32 5.04-17.24 7.45-24.25s7.1-18.94 10.41-26.5c3.32-7.56 8.84-18.93 12.25-25.25 3.42-6.32 10.72-18.26 16.22-26.52s13.44-19.28 17.65-24.5c4.2-5.21 11.63-13.82 16.5-19.13 4.87-5.3 13.35-13.79 18.85-18.85 5.5-5.07 14.27-12.65 19.48-16.85 5.22-4.21 16.24-12.15 24.5-17.65s20.19-12.8 26.52-16.22c6.33-3.41 17.69-8.93 25.25-12.25 7.56-3.31 19.49-8 26.5-10.41s17.92-5.76 24.25-7.45c6.33-1.68 17.35-4.18 24.5-5.54 7.15-1.37 17.5-3.02 23-3.68 5.5-.65 16.75-1.48 25-1.82 8.25-.35 19.95-.5 26-.33zm-51.5 76.7c-5.77.89-17.02 3.21-25 5.15s-20.12 5.55-27 8.03c-6.87 2.47-18.58 7.41-26 10.96-7.42 3.56-18 9.23-23.5 12.61-5.5 3.37-13.15 8.37-17 11.1s-10.37 7.7-14.5 11.04c-4.12 3.34-12.17 10.58-17.87 16.09-5.71 5.51-13.96 14.3-18.35 19.52s-10.55 13.1-13.69 17.5c-3.13 4.4-8.46 12.5-11.84 18s-9.04 16.07-12.59 23.5-8.35 18.68-10.65 25c-2.31 6.32-5.75 17.57-7.65 25s-4.33 18.9-5.4 25.5-2.36 18.97-2.87 27.5c-.56 9.44-.56 21.56 0 31 .51 8.53 1.8 20.9 2.87 27.5s3.5 18.07 5.4 25.5 5.34 18.68 7.65 25c2.3 6.32 7.1 17.57 10.65 25s9.21 18 12.59 23.5 8.71 13.6 11.84 18c3.14 4.4 9.3 12.28 13.69 17.5s12.64 14.01 18.35 19.52c5.7 5.51 13.75 12.75 17.87 16.09 4.13 3.34 10.65 8.31 14.5 11.04s11.5 7.73 17 11.1c5.5 3.38 16.08 9.04 23.5 12.59s18.67 8.35 25 10.65c6.33 2.31 17.58 5.75 25 7.65s18.9 4.33 25.5 5.4 18.98 2.36 27.5 2.87c9.44.56 21.56.56 31 0 8.52-.51 20.9-1.8 27.5-2.87s18.08-3.5 25.5-5.4 18.67-5.34 25-7.65c6.33-2.3 17.58-7.1 25-10.65s18-9.21 23.5-12.59c5.5-3.37 13.15-8.37 17-11.1s10.38-7.7 14.5-11.04c4.13-3.34 12.17-10.58 17.87-16.09 5.71-5.51 13.96-14.3 18.35-19.52s10.55-13.1 13.69-17.5c3.13-4.4 8.46-12.5 11.84-18s9.04-16.07 12.59-23.5 8.35-18.68 10.65-25c2.31-6.32 5.75-17.57 7.65-25s4.33-18.9 5.4-25.5 2.36-18.97 2.87-27.5c.56-9.44.56-21.56 0-31-.51-8.53-1.8-20.9-2.87-27.5s-3.5-18.07-5.4-25.5-5.34-18.68-7.65-25c-2.3-6.32-7.1-17.57-10.65-25s-9.21-18-12.59-23.5-8.71-13.6-11.84-18c-3.14-4.4-9.3-12.28-13.69-17.5s-12.64-14.01-18.35-19.52c-5.7-5.51-13.74-12.75-17.87-16.09-4.12-3.34-10.65-8.31-14.5-11.04s-11.5-7.73-17-11.1c-5.5-3.38-16.08-9.04-23.5-12.59s-18.67-8.35-25-10.65c-6.33-2.31-17.58-5.75-25-7.65s-18.9-4.33-25.5-5.4-19.42-2.39-28.5-2.94l-17.5-.86c-.55.07-6.85.49-14 .93-7.15.43-17.73 1.52-23.5 2.41zm786.5-33.43c2.75-.04 7.93.71 11.52 1.68 3.78 1.01 8.95 3.43 12.3 5.75s7.32 6.3 9.47 9.48c2.04 3.01 4.5 8.41 5.46 12 .97 3.59 1.75 8.55 1.73 11.02-.01 2.47-.67 6.97-1.46 10-.8 3.03-3.77 11.57-6.59 19l-9.14 24-6.78 18-6.36 17-8.16 21.5-10.95 29-8.89 23.5-8.52 22.5-14.17 37.5-12.52 33-10.94 29-11.14 29.5-7.34 19.5-6.79 18-7.15 19-5.58 14.5c-1.33 3.3-5.42 14.1-9.09 24l-8.85 23c-1.2 2.75-4.01 7.47-6.25 10.5-2.23 3.03-5.35 6.25-9.81 8.83l-66.5-41.47-68-42.34c-.83-.48-1.27-1.16-1-1.51s7.25.09 15.5.98l72.16 8.01 4.63-12.5 9.23-24.5 8.39-22 10.52-28 10.18-27 6.92-18 9.07-24 9.94-26.5 15.5-41 15.16-40 6.79-18 6.36-17 7.97-21 12.15-32 11.66-31c2.13-5.78 5.57-12.88 7.63-15.79s6.2-6.96 9.21-9 8.19-4.47 11.5-5.39c3.32-.92 8.28-1.71 11.03-1.75zm-754.92 106.25c15.98.18 16.12.2 20.95 3.18 3.02 1.86 6.03 4.87 7.92 7.93 2.4 3.87 3.13 6.33 3.43 11.5.21 3.61-.12 8.14-.72 10.07s-2.46 5.41-4.13 7.75c-1.99 2.79-4.83 5.1-8.28 6.73-4.54 2.14-7.2 2.56-19.75 3.1-7.98.35-18.33 1.2-23 1.9s-13 2.96-18.5 5.02-13.6 5.54-18 7.73c-4.4 2.2-10.7 5.6-14 7.56s-9.37 6.38-13.5 9.81c-4.12 3.43-10.01 8.86-13.08 12.07s-7.61 8.3-10.09 11.33c-2.47 3.03-6.1 8.2-8.05 11.5-1.96 3.3-5.35 9.6-7.55 14-2.19 4.4-5.67 12.5-7.73 18s-4.33 13.82-5.03 18.5c-.71 4.68-1.55 15.47-1.87 24-.53 13.76-.88 16.09-3.1 20.75-1.63 3.43-3.98 6.3-6.75 8.28-2.34 1.67-5.83 3.53-7.75 4.13s-6.46.93-10.07.72c-5.13-.3-7.65-1.04-11.45-3.38-3.03-1.86-6.04-4.86-7.93-7.92-3.01-4.85-3.05-5.1-3.36-20.5-.21-10.64.21-19.07 1.31-26.58.89-6.05 2.75-15.5 4.14-21 1.38-5.5 4.11-14.28 6.07-19.5 1.95-5.22 5.91-14.22 8.81-20s7.94-14.55 11.21-19.5c3.26-4.95 8.66-12.37 11.99-16.5 3.33-4.12 10.27-11.56 15.42-16.52 5.15-4.97 12.06-11.09 15.36-13.62 3.3-2.52 9.83-7.07 14.5-10.1 4.67-3.04 13-7.77 18.5-10.52 5.5-2.74 14.27-6.58 19.5-8.53 5.23-1.96 14-4.69 19.5-6.08s14.27-3.19 19.5-4.01c6.04-.95 15.36-1.42 25.58-1.3z" fill="#fff"/></svg>